<svg xmlns="http://www.w3.org/2000/svg" viewBox="0 0 24 24" fill="none" role="img" aria-hidden="true">
  <path d="M17.5 14.4c-.3-.1-1.6-.8-1.9-.9-.2-.1-.4-.1-.6.1-.2.3-.7.9-.8 1-.2.2-.3.2-.5.1-.3-.1-1.2-.4-2.2-1.4-.8-.7-1.4-1.6-1.5-1.9-.2-.3 0-.5.1-.6l.4-.5c.1-.1.2-.3.2-.4.1-.1.1-.3 0-.4-.1-.1-.6-1.4-.8-1.9-.2-.5-.4-.4-.6-.4h-.5c-.2 0-.4.1-.6.3-.2.3-.8.8-.8 1.9s.8 2.2.9 2.4c.1.2 1.6 2.4 3.8 3.4.5.2 1 .4 1.3.5.5.2 1 .1 1.4.1.4-.1 1.3-.5 1.5-1.1.2-.5.2-1 .1-1.1-.1-.1-.2-.2-.4-.3Z" fill="#aeb8ff"/>
  <path d="M12 3.5a8.5 8.5 0 0 0-7.3 12.8L3.5 20.5l4.3-1.1A8.5 8.5 0 1 0 12 3.5Z" stroke="#aeb8ff" stroke-width="1.3"/>
</svg>
